<mxfile host="65bd71144e">
    <diagram id="xAEmcv7q0ZgxozI9YYKq" name="PÃ¡gina-1">
        <mxGraphModel dx="1774" dy="551" grid="1" gridSize="10" guides="1" tooltips="1" connect="1" arrows="1" fold="1" page="1" pageScale="1" pageWidth="827" pageHeight="1169" math="0" shadow="0">
            <root>
                <mxCell id="0"/>
                <mxCell id="1" parent="0"/>
                <mxCell id="6" value="" style="edgeStyle=none;html=1;fontSize=14;fillColor=#e3c800;strokeColor=#B09500;" parent="1" source="4" target="5" edge="1">
                    <mxGeometry relative="1" as="geometry"/>
                </mxCell>
                <mxCell id="4" value="&lt;font size=&quot;3&quot;&gt;&lt;b&gt;INICIO&lt;/b&gt;&lt;/font&gt;" style="ellipse;whiteSpace=wrap;html=1;fillColor=#a20025;fontColor=#ffffff;strokeColor=#6F0000;" parent="1" vertex="1">
                    <mxGeometry x="350" y="300" width="120" height="80" as="geometry"/>
                </mxCell>
                <mxCell id="8" value="" style="edgeStyle=none;html=1;fontSize=14;fillColor=#e3c800;strokeColor=#B09500;" parent="1" source="5" target="7" edge="1">
                    <mxGeometry relative="1" as="geometry"/>
                </mxCell>
                <mxCell id="5" value="&lt;b&gt;X,Y&lt;/b&gt;" style="shape=parallelogram;perimeter=parallelogramPerimeter;whiteSpace=wrap;html=1;fixedSize=1;fillColor=#6d8764;fontColor=#ffffff;strokeColor=#3A5431;" parent="1" vertex="1">
                    <mxGeometry x="350" y="470" width="120" height="60" as="geometry"/>
                </mxCell>
                <mxCell id="10" style="edgeStyle=none;html=1;entryX=0.5;entryY=0;entryDx=0;entryDy=0;fontSize=14;fillColor=#e3c800;strokeColor=#B09500;" parent="1" source="7" target="9" edge="1">
                    <mxGeometry relative="1" as="geometry">
                        <Array as="points">
                            <mxPoint x="710" y="640"/>
                        </Array>
                    </mxGeometry>
                </mxCell>
                <mxCell id="18" style="edgeStyle=none;html=1;entryX=0.5;entryY=0;entryDx=0;entryDy=0;fontSize=14;fillColor=#e3c800;strokeColor=#B09500;" parent="1" source="7" target="17" edge="1">
                    <mxGeometry relative="1" as="geometry">
                        <Array as="points">
                            <mxPoint x="190" y="640"/>
                        </Array>
                    </mxGeometry>
                </mxCell>
                <mxCell id="7" value="&lt;b&gt;X==0&lt;/b&gt;" style="rhombus;whiteSpace=wrap;html=1;fillColor=#e51400;fontColor=#ffffff;strokeColor=#B20000;" parent="1" vertex="1">
                    <mxGeometry x="370" y="600" width="80" height="80" as="geometry"/>
                </mxCell>
                <mxCell id="12" style="edgeStyle=none;html=1;entryX=0.5;entryY=0;entryDx=0;entryDy=0;fontSize=14;fillColor=#e3c800;strokeColor=#B09500;" parent="1" source="9" target="11" edge="1">
                    <mxGeometry relative="1" as="geometry">
                        <Array as="points">
                            <mxPoint x="565" y="740"/>
                        </Array>
                    </mxGeometry>
                </mxCell>
                <mxCell id="14" style="edgeStyle=none;html=1;entryX=0.5;entryY=0;entryDx=0;entryDy=0;fontSize=14;fillColor=#e3c800;strokeColor=#B09500;" parent="1" source="9" target="13" edge="1">
                    <mxGeometry relative="1" as="geometry">
                        <Array as="points">
                            <mxPoint x="890" y="740"/>
                        </Array>
                    </mxGeometry>
                </mxCell>
                <mxCell id="9" value="&lt;b&gt;Y==0&lt;/b&gt;" style="rhombus;whiteSpace=wrap;html=1;fontSize=14;fillColor=#e51400;fontColor=#ffffff;strokeColor=#B20000;" parent="1" vertex="1">
                    <mxGeometry x="670" y="700" width="80" height="80" as="geometry"/>
                </mxCell>
                <mxCell id="49" value="" style="edgeStyle=none;html=1;fontSize=14;fillColor=#e3c800;strokeColor=#B09500;" parent="1" source="11" target="48" edge="1">
                    <mxGeometry relative="1" as="geometry">
                        <Array as="points">
                            <mxPoint x="565" y="920"/>
                        </Array>
                    </mxGeometry>
                </mxCell>
                <mxCell id="11" value="&lt;b&gt;Eje Y&lt;/b&gt;" style="shape=document;whiteSpace=wrap;html=1;boundedLbl=1;fontSize=14;fillColor=#60a917;fontColor=#ffffff;strokeColor=#2D7600;" parent="1" vertex="1">
                    <mxGeometry x="510" y="780" width="110" height="70" as="geometry"/>
                </mxCell>
                <mxCell id="15" style="edgeStyle=none;html=1;fontSize=14;startArrow=none;" parent="1" source="48" edge="1">
                    <mxGeometry relative="1" as="geometry">
                        <mxPoint x="720" y="920" as="targetPoint"/>
                        <Array as="points"/>
                    </mxGeometry>
                </mxCell>
                <mxCell id="13" value="&lt;b&gt;ORIGEN&lt;/b&gt;" style="shape=document;whiteSpace=wrap;html=1;boundedLbl=1;fontSize=14;fillColor=#60a917;fontColor=#ffffff;strokeColor=#2D7600;" parent="1" vertex="1">
                    <mxGeometry x="830" y="780" width="120" height="70" as="geometry"/>
                </mxCell>
                <mxCell id="20" style="edgeStyle=none;html=1;entryX=0.588;entryY=-0.005;entryDx=0;entryDy=0;entryPerimeter=0;fontSize=14;fillColor=#e3c800;strokeColor=#B09500;" parent="1" source="17" target="19" edge="1">
                    <mxGeometry relative="1" as="geometry">
                        <Array as="points">
                            <mxPoint x="388" y="740"/>
                        </Array>
                    </mxGeometry>
                </mxCell>
                <mxCell id="22" style="edgeStyle=none;html=1;entryX=0.5;entryY=0;entryDx=0;entryDy=0;fontSize=14;fillColor=#e3c800;strokeColor=#B09500;" parent="1" source="17" target="21" edge="1">
                    <mxGeometry relative="1" as="geometry">
                        <Array as="points">
                            <mxPoint x="10" y="740"/>
                        </Array>
                    </mxGeometry>
                </mxCell>
                <mxCell id="17" value="&lt;b&gt;Y==0&lt;/b&gt;" style="rhombus;whiteSpace=wrap;html=1;fontSize=14;fillColor=#e51400;fontColor=#ffffff;strokeColor=#B20000;" parent="1" vertex="1">
                    <mxGeometry x="150" y="700" width="80" height="80" as="geometry"/>
                </mxCell>
                <mxCell id="47" style="edgeStyle=none;html=1;fontSize=14;fillColor=#e3c800;strokeColor=#B09500;" parent="1" source="19" edge="1">
                    <mxGeometry relative="1" as="geometry">
                        <mxPoint x="380" y="1180" as="targetPoint"/>
                    </mxGeometry>
                </mxCell>
                <mxCell id="19" value="&lt;b&gt;Eje X&lt;/b&gt;" style="shape=document;whiteSpace=wrap;html=1;boundedLbl=1;fontSize=14;fillColor=#60a917;fontColor=#ffffff;strokeColor=#2D7600;" parent="1" vertex="1">
                    <mxGeometry x="320" y="775" width="115" height="70" as="geometry"/>
                </mxCell>
                <mxCell id="24" style="edgeStyle=none;html=1;entryX=0.5;entryY=0;entryDx=0;entryDy=0;fontSize=14;fillColor=#e3c800;strokeColor=#B09500;" parent="1" source="21" target="23" edge="1">
                    <mxGeometry relative="1" as="geometry">
                        <Array as="points">
                            <mxPoint x="170" y="815"/>
                        </Array>
                    </mxGeometry>
                </mxCell>
                <mxCell id="54" style="edgeStyle=none;html=1;entryX=0.5;entryY=0;entryDx=0;entryDy=0;fontSize=14;fillColor=#e3c800;strokeColor=#B09500;" parent="1" source="21" target="29" edge="1">
                    <mxGeometry relative="1" as="geometry">
                        <Array as="points">
                            <mxPoint x="-260" y="815"/>
                        </Array>
                    </mxGeometry>
                </mxCell>
                <mxCell id="21" value="&lt;b&gt;X&amp;gt;0&lt;/b&gt;" style="rhombus;whiteSpace=wrap;html=1;fontSize=14;fillColor=#e51400;fontColor=#ffffff;strokeColor=#B20000;" parent="1" vertex="1">
                    <mxGeometry x="-30" y="775" width="80" height="80" as="geometry"/>
                </mxCell>
                <mxCell id="26" style="edgeStyle=none;html=1;entryX=0.5;entryY=0;entryDx=0;entryDy=0;fontSize=14;fillColor=#e3c800;strokeColor=#B09500;" parent="1" source="23" target="25" edge="1">
                    <mxGeometry relative="1" as="geometry">
                        <Array as="points">
                            <mxPoint x="290" y="890"/>
                        </Array>
                    </mxGeometry>
                </mxCell>
                <mxCell id="28" style="edgeStyle=none;html=1;entryX=0.5;entryY=0;entryDx=0;entryDy=0;fontSize=14;fillColor=#e3c800;strokeColor=#B09500;" parent="1" source="23" target="27" edge="1">
                    <mxGeometry relative="1" as="geometry">
                        <Array as="points">
                            <mxPoint x="70" y="890"/>
                        </Array>
                    </mxGeometry>
                </mxCell>
                <mxCell id="23" value="&lt;b&gt;Y&amp;gt;0&lt;/b&gt;" style="rhombus;whiteSpace=wrap;html=1;fontSize=14;fillColor=#e51400;fontColor=#ffffff;strokeColor=#B20000;" parent="1" vertex="1">
                    <mxGeometry x="130" y="850" width="80" height="80" as="geometry"/>
                </mxCell>
                <mxCell id="44" value="" style="edgeStyle=none;html=1;fontSize=14;fillColor=#e3c800;strokeColor=#B09500;" parent="1" source="25" target="43" edge="1">
                    <mxGeometry relative="1" as="geometry">
                        <Array as="points">
                            <mxPoint x="290" y="1130"/>
                        </Array>
                    </mxGeometry>
                </mxCell>
                <mxCell id="25" value="&lt;b&gt;CUADRANTE 1&lt;/b&gt;" style="shape=document;whiteSpace=wrap;html=1;boundedLbl=1;fontSize=14;fillColor=#60a917;fontColor=#ffffff;strokeColor=#2D7600;" parent="1" vertex="1">
                    <mxGeometry x="230" y="950" width="120" height="70" as="geometry"/>
                </mxCell>
                <mxCell id="41" value="" style="edgeStyle=none;html=1;fontSize=14;fillColor=#e3c800;strokeColor=#B09500;" parent="1" source="27" edge="1">
                    <mxGeometry relative="1" as="geometry">
                        <mxPoint x="180" y="1130" as="targetPoint"/>
                        <Array as="points">
                            <mxPoint x="70" y="1130"/>
                        </Array>
                    </mxGeometry>
                </mxCell>
                <mxCell id="27" value="&lt;b&gt;CUADRANTE 4&lt;/b&gt;" style="shape=document;whiteSpace=wrap;html=1;boundedLbl=1;fontSize=14;fillColor=#60a917;fontColor=#ffffff;strokeColor=#2D7600;" parent="1" vertex="1">
                    <mxGeometry x="10" y="950" width="120" height="70" as="geometry"/>
                </mxCell>
                <mxCell id="31" style="edgeStyle=none;html=1;entryX=0.5;entryY=0;entryDx=0;entryDy=0;fontSize=14;fillColor=#e3c800;strokeColor=#B09500;" parent="1" source="29" target="30" edge="1">
                    <mxGeometry relative="1" as="geometry">
                        <Array as="points">
                            <mxPoint x="-100" y="890"/>
                        </Array>
                    </mxGeometry>
                </mxCell>
                <mxCell id="33" style="edgeStyle=none;html=1;entryX=0.5;entryY=0;entryDx=0;entryDy=0;fontSize=14;fillColor=#e3c800;strokeColor=#B09500;" parent="1" source="29" target="32" edge="1">
                    <mxGeometry relative="1" as="geometry">
                        <Array as="points">
                            <mxPoint x="-430" y="890"/>
                        </Array>
                    </mxGeometry>
                </mxCell>
                <mxCell id="29" value="&lt;b&gt;Y&amp;lt;0&lt;/b&gt;" style="rhombus;whiteSpace=wrap;html=1;fontSize=14;fillColor=#e51400;fontColor=#ffffff;strokeColor=#B20000;" parent="1" vertex="1">
                    <mxGeometry x="-300" y="850" width="80" height="80" as="geometry"/>
                </mxCell>
                <mxCell id="38" value="" style="edgeStyle=none;html=1;fontSize=14;startArrow=none;fillColor=#e3c800;strokeColor=#B09500;" parent="1" source="37" target="34" edge="1">
                    <mxGeometry relative="1" as="geometry">
                        <Array as="points">
                            <mxPoint x="-100" y="1130"/>
                        </Array>
                    </mxGeometry>
                </mxCell>
                <mxCell id="30" value="&lt;b&gt;CUADRANTE 3&lt;/b&gt;" style="shape=document;whiteSpace=wrap;html=1;boundedLbl=1;fontSize=14;fillColor=#60a917;fontColor=#ffffff;strokeColor=#2D7600;" parent="1" vertex="1">
                    <mxGeometry x="-160" y="950" width="120" height="70" as="geometry"/>
                </mxCell>
                <mxCell id="35" value="" style="edgeStyle=none;html=1;fontSize=14;startArrow=none;" parent="1" source="34" edge="1">
                    <mxGeometry relative="1" as="geometry">
                        <mxPoint x="-260" y="1130" as="targetPoint"/>
                    </mxGeometry>
                </mxCell>
                <mxCell id="32" value="&lt;b&gt;CUADRANTE 2&lt;/b&gt;" style="shape=document;whiteSpace=wrap;html=1;boundedLbl=1;fontSize=14;fillColor=#60a917;fontColor=#ffffff;strokeColor=#2D7600;" parent="1" vertex="1">
                    <mxGeometry x="-490" y="950" width="120" height="70" as="geometry"/>
                </mxCell>
                <mxCell id="36" value="" style="edgeStyle=none;html=1;fontSize=14;endArrow=none;fillColor=#e3c800;strokeColor=#B09500;" parent="1" source="32" target="34" edge="1">
                    <mxGeometry relative="1" as="geometry">
                        <mxPoint x="-388.9655172413793" y="1020" as="sourcePoint"/>
                        <mxPoint x="-260" y="1130" as="targetPoint"/>
                        <Array as="points">
                            <mxPoint x="-430" y="1130"/>
                        </Array>
                    </mxGeometry>
                </mxCell>
                <mxCell id="34" value="" style="shape=waypoint;sketch=0;size=6;pointerEvents=1;points=[];fillColor=#e3c800;resizable=0;rotatable=0;perimeter=centerPerimeter;snapToPoint=1;fontSize=14;fontColor=#000000;strokeColor=#B09500;" parent="1" vertex="1">
                    <mxGeometry x="-270" y="1120" width="20" height="20" as="geometry"/>
                </mxCell>
                <mxCell id="39" value="" style="edgeStyle=none;html=1;fontSize=14;endArrow=none;fillColor=#e3c800;strokeColor=#B09500;" parent="1" source="30" target="37" edge="1">
                    <mxGeometry relative="1" as="geometry">
                        <mxPoint x="-100" y="1020" as="sourcePoint"/>
                        <mxPoint x="-260" y="1130" as="targetPoint"/>
                        <Array as="points"/>
                    </mxGeometry>
                </mxCell>
                <mxCell id="37" value="" style="shape=waypoint;sketch=0;size=6;pointerEvents=1;points=[];fillColor=#e3c800;resizable=0;rotatable=0;perimeter=centerPerimeter;snapToPoint=1;fontSize=14;fontColor=#000000;strokeColor=#B09500;" parent="1" vertex="1">
                    <mxGeometry x="-110" y="1110" width="20" height="20" as="geometry"/>
                </mxCell>
                <mxCell id="40" value="" style="shape=waypoint;sketch=0;size=6;pointerEvents=1;points=[];fillColor=#e3c800;resizable=0;rotatable=0;perimeter=centerPerimeter;snapToPoint=1;fontSize=14;fontColor=#000000;strokeColor=#B09500;" parent="1" vertex="1">
                    <mxGeometry x="160" y="1120" width="20" height="20" as="geometry"/>
                </mxCell>
                <mxCell id="46" style="edgeStyle=none;html=1;fontSize=14;fillColor=#e3c800;strokeColor=#B09500;" parent="1" source="43" edge="1">
                    <mxGeometry relative="1" as="geometry">
                        <mxPoint x="180" y="1180" as="targetPoint"/>
                    </mxGeometry>
                </mxCell>
                <mxCell id="43" value="" style="shape=waypoint;sketch=0;size=6;pointerEvents=1;points=[];fillColor=#e3c800;resizable=0;rotatable=0;perimeter=centerPerimeter;snapToPoint=1;fontSize=14;fontColor=#000000;strokeColor=#B09500;" parent="1" vertex="1">
                    <mxGeometry x="170" y="1120" width="20" height="20" as="geometry"/>
                </mxCell>
                <mxCell id="50" value="" style="edgeStyle=none;html=1;fontSize=14;endArrow=none;fillColor=#e3c800;strokeColor=#B09500;" parent="1" source="13" target="48" edge="1">
                    <mxGeometry relative="1" as="geometry">
                        <mxPoint x="720" y="920" as="targetPoint"/>
                        <mxPoint x="890" y="850" as="sourcePoint"/>
                        <Array as="points">
                            <mxPoint x="890" y="920"/>
                        </Array>
                    </mxGeometry>
                </mxCell>
                <mxCell id="52" value="" style="edgeStyle=none;html=1;fontSize=14;fillColor=#e3c800;strokeColor=#B09500;" parent="1" source="48" target="51" edge="1">
                    <mxGeometry relative="1" as="geometry">
                        <Array as="points">
                            <mxPoint x="730" y="1179"/>
                        </Array>
                    </mxGeometry>
                </mxCell>
                <mxCell id="48" value="" style="shape=waypoint;sketch=0;size=6;pointerEvents=1;points=[];fillColor=#e3c800;resizable=0;rotatable=0;perimeter=centerPerimeter;snapToPoint=1;fontSize=14;fontColor=#000000;strokeColor=#B09500;" parent="1" vertex="1">
                    <mxGeometry x="720" y="910" width="20" height="20" as="geometry"/>
                </mxCell>
                <mxCell id="53" value="" style="edgeStyle=none;html=1;fontSize=14;endArrow=none;fillColor=#e3c800;strokeColor=#B09500;" parent="1" source="34" target="51" edge="1">
                    <mxGeometry relative="1" as="geometry">
                        <mxPoint x="501.3333333333335" y="1180" as="targetPoint"/>
                        <mxPoint x="-260" y="1130" as="sourcePoint"/>
                        <Array as="points">
                            <mxPoint x="-260" y="1180"/>
                        </Array>
                    </mxGeometry>
                </mxCell>
                <mxCell id="56" value="" style="edgeStyle=none;html=1;fontSize=14;fillColor=#e3c800;strokeColor=#B09500;" parent="1" source="51" target="55" edge="1">
                    <mxGeometry relative="1" as="geometry"/>
                </mxCell>
                <mxCell id="51" value="" style="shape=waypoint;sketch=0;size=6;pointerEvents=1;points=[];fillColor=#e3c800;resizable=0;rotatable=0;perimeter=centerPerimeter;snapToPoint=1;fontSize=14;fontColor=#000000;strokeColor=#B09500;" parent="1" vertex="1">
                    <mxGeometry x="480" y="1169" width="20" height="20" as="geometry"/>
                </mxCell>
                <mxCell id="55" value="&lt;b&gt;FIN&lt;/b&gt;" style="ellipse;whiteSpace=wrap;html=1;fontSize=14;fillColor=#a20025;fontColor=#ffffff;strokeColor=#6F0000;" parent="1" vertex="1">
                    <mxGeometry x="430" y="1260" width="120" height="80" as="geometry"/>
                </mxCell>
                <mxCell id="57" value="&lt;font color=&quot;#009900&quot;&gt;VERDADERO&lt;/font&gt;" style="text;html=1;align=center;verticalAlign=middle;resizable=0;points=[];autosize=1;strokeColor=none;fillColor=none;" vertex="1" parent="1">
                    <mxGeometry x="430" y="605" width="100" height="30" as="geometry"/>
                </mxCell>
                <mxCell id="58" value="&lt;font color=&quot;#cc0000&quot;&gt;FALSO&lt;/font&gt;" style="text;html=1;align=center;verticalAlign=middle;resizable=0;points=[];autosize=1;strokeColor=none;fillColor=none;" vertex="1" parent="1">
                    <mxGeometry x="300" y="605" width="60" height="30" as="geometry"/>
                </mxCell>
                <mxCell id="62" value="&lt;font color=&quot;#009900&quot;&gt;VERDADERO&lt;/font&gt;" style="text;html=1;align=center;verticalAlign=middle;resizable=0;points=[];autosize=1;strokeColor=none;fillColor=none;" vertex="1" parent="1">
                    <mxGeometry x="740" y="710" width="100" height="30" as="geometry"/>
                </mxCell>
                <mxCell id="63" value="FALSO" style="text;html=1;align=center;verticalAlign=middle;resizable=0;points=[];autosize=1;strokeColor=none;fillColor=none;" vertex="1" parent="1">
                    <mxGeometry x="610" y="710" width="60" height="30" as="geometry"/>
                </mxCell>
                <mxCell id="64" value="&lt;font color=&quot;#009900&quot;&gt;VERDADERO&lt;/font&gt;" style="text;html=1;align=center;verticalAlign=middle;resizable=0;points=[];autosize=1;strokeColor=none;fillColor=none;" vertex="1" parent="1">
                    <mxGeometry x="230" y="710" width="100" height="30" as="geometry"/>
                </mxCell>
                <mxCell id="65" value="&lt;font color=&quot;#cc0000&quot;&gt;FALSO&lt;/font&gt;" style="text;html=1;align=center;verticalAlign=middle;resizable=0;points=[];autosize=1;strokeColor=none;fillColor=none;" vertex="1" parent="1">
                    <mxGeometry x="90" y="710" width="60" height="30" as="geometry"/>
                </mxCell>
                <mxCell id="66" value="&lt;font color=&quot;#009900&quot;&gt;VERDADERO&lt;/font&gt;" style="text;html=1;align=center;verticalAlign=middle;resizable=0;points=[];autosize=1;strokeColor=none;fillColor=none;" vertex="1" parent="1">
                    <mxGeometry x="40" y="780" width="100" height="30" as="geometry"/>
                </mxCell>
                <mxCell id="67" value="&lt;font color=&quot;#cc0000&quot;&gt;FALSO&lt;/font&gt;" style="text;html=1;align=center;verticalAlign=middle;resizable=0;points=[];autosize=1;strokeColor=none;fillColor=none;" vertex="1" parent="1">
                    <mxGeometry x="-90" y="780" width="60" height="30" as="geometry"/>
                </mxCell>
                <mxCell id="68" value="&lt;font color=&quot;#009900&quot;&gt;VERDADERO&lt;/font&gt;" style="text;html=1;align=center;verticalAlign=middle;resizable=0;points=[];autosize=1;strokeColor=none;fillColor=none;" vertex="1" parent="1">
                    <mxGeometry x="200" y="865" width="100" height="30" as="geometry"/>
                </mxCell>
                <mxCell id="69" value="&lt;font color=&quot;#cc0000&quot;&gt;FALSO&lt;/font&gt;" style="text;html=1;align=center;verticalAlign=middle;resizable=0;points=[];autosize=1;strokeColor=none;fillColor=none;" vertex="1" parent="1">
                    <mxGeometry x="70" y="865" width="60" height="30" as="geometry"/>
                </mxCell>
                <mxCell id="70" value="&lt;font color=&quot;#009900&quot;&gt;VERDADERO&lt;/font&gt;" style="text;html=1;align=center;verticalAlign=middle;resizable=0;points=[];autosize=1;strokeColor=none;fillColor=none;" vertex="1" parent="1">
                    <mxGeometry x="-230" y="865" width="100" height="30" as="geometry"/>
                </mxCell>
                <mxCell id="72" value="&lt;font color=&quot;#cc0000&quot;&gt;FALSO&lt;/font&gt;" style="text;html=1;align=center;verticalAlign=middle;resizable=0;points=[];autosize=1;strokeColor=none;fillColor=none;" vertex="1" parent="1">
                    <mxGeometry x="-360" y="865" width="60" height="30" as="geometry"/>
                </mxCell>
            </root>
        </mxGraphModel>
    </diagram>
</mxfile>